PathFileType	4	(X/Y/Z)	/home/abdul/Desktop/myosuite/custom_workspace/IK/output/S19_12_2.trc
DataRate	CameraRate	NumFrames	NumMarkers	Units	OrigDataRate	OrigDataStartFrame	OrigNumFrames
200.0	200.0	80	3	mm	200.0	922	1474
Frame#	Time	V_Shoulder			V_Elbow			V_Wrist		
		X1	Y1	Z1	X2	Y2	Z2	X3	Y3	Z3

922	4.605	-103.54679669754289	655.3775511159896	316.5626254623633				-103.54427142611186	214.86926063264326	83.67867351831076
923	4.61	-103.55076514401084	655.0864916385118	316.50005150380906				-103.29003156684833	214.39203729439586	83.13520898372556
924	4.615	-103.5544336153376	654.7967158626285	316.4372477327909				-103.02666235519366	213.9281297806874	82.58113362892394
925	4.62	-103.55780460413222	654.5082577695126	316.37423543887775				-102.75437377964707	213.47738309409047	82.01678365139892
926	4.625	-103.56088024755245	654.2211513812912	316.31103702303966				-102.47339308810155	213.03962470664754	81.44252937623278
927	4.63	-103.56366232688892	653.9354307266785	316.24767595742424				-102.18396431854958	212.61466500978403	80.85877406307138
928	4.635	-103.56615226806082	653.6511298061055	316.18417674266806				-101.8863477708162	212.2022978178606	80.26595259745636
929	4.64	-103.5683511430225	653.3682825564189	316.12056486284024				-101.58081942084108	211.8023009240553	79.66453007104813
930	4.645	-103.5702596720783	653.0869228152346	316.05686673812284				-101.26767027927735	211.41443670705553	79.05500025577916
931	4.65	-103.57187822709989	652.8070842850194	315.9931096753366				-100.94720569641588	211.03845278683056	78.4378839774655
932	4.655	-103.57320683563891	652.5288004969848	315.9293218164292				-100.619744615678	210.67408272755173	77.81372739487043
933	4.66	-103.57424518592438	652.252104774874	315.8655320850451				-100.28561877814673	210.3210467855265	77.18310019065783
934	4.665	-103.5749926327328	651.9770301987222	315.8017701313043				-99.9451718808232	209.97905269982078	76.54659368108813
935	4.67	-103.57544820411601	651.7036095686743	315.738066274921				-99.59875869150426	209.64779652305506	75.90481885169756
936	4.675	-103.57561060897012	651.4318753689425	315.67445144679715				-99.24674412337316	209.32696348968082	75.25840432655822
937	4.68	-103.57547824542571	651.1618597319831	315.6109571292315				-98.8895022725812	209.01622891887365	74.60799427903876
938	4.685	-103.57504921003851	650.8935944029777	315.5476152948861				-98.52741542226994	208.71525914901662	73.95424629227391
939	4.69	-103.57432130775635	650.6271107046969	315.4844583446597				-98.16087301664345	208.42371250059708	73.29782917780173
940	4.695	-103.57329206263728	650.362439502829	315.4215190446142				-97.79027060884317	208.14124026419992	72.63942076103984
941	4.7	-103.57195872929071	650.0996111718497	315.35883046211075				-97.41600878650802	207.86748771015223	71.97970564244388
942	4.705	-103.57031830501217	649.8386555615147	315.2964259013059				-97.03849207901513	207.6020951162585	71.31937294332229
943	4.71	-103.56836754258018	649.5796019640467	315.2343388381676				-96.65812785049306	207.34469880996465	70.65911404537044
944	4.715	-103.5661029636821	649.3224790820949	315.1726028551659				-96.27532518277926	207.09493222120142	69.99962033303171
945	4.72	-103.56352087293381	649.0673149975374	315.1112515757988				-95.89049375255459	206.85242694208438	69.34158094779627
946	4.725	-103.56061737245693	648.8141371411956	315.0503185991099				-95.50404270693218	206.61681378959184	68.68568056350497
947	4.73	-103.55738837697565	648.5629722635304	314.9898374343586				-95.11637954180244	206.3877238673003	68.0325971916408
948	4.735	-103.5538296293937	648.3138464063838	314.9298414359991				-94.72790898724337	206.16478962223238	67.38300002545942
949	4.74	-103.54993671681103	648.0667848758286	314.8703637391271				-94.33903190429231	205.94764589286484	66.73754733163791
950	4.745	-103.54570508693871	647.8218122161835	314.8114371955488				-93.95014419734461	205.7359309443542	66.09688439790419
951	4.75	-103.54113006486934	647.5789521852504	314.75309431062664				-93.5616357463938	205.52928748706324	65.4616415448524
952	4.755	-103.53620687015962	647.3382277308275	314.69536718105206				-93.17388936325969	205.3273636745176	64.83243220985031
953	4.76	-103.53093063418082	647.0996609685433	314.6382874336967				-92.78727977586183	205.1298140769829	64.20985111060791
954	4.765	-103.52529641769252	646.8632731610592	314.5818861656844				-92.40217264449042	204.93630062693288	63.59447249560011
955	4.77	-103.5192992285942	646.6290846986797	314.52619388582883				-92.01892361390202	204.7464935327765	62.986848488125744
956	4.775	-103.51293403980928	646.3971150814069	314.4712404575732				-91.63787740492592	204.56007215732637	62.38750753034012
957	4.78	-103.50619580725572	646.1673829024741	314.41705504356577				-91.25936694910737	204.37672585762226	61.79695293312165
958	4.785	-103.49907948785763	645.939905833383	314.3636660520014				-90.88371256973907	204.19615478287125	61.21566153712782
959	4.79	-103.49158005755199	645.7147006104717	314.3111010848505				-90.51122121244094	204.0180706274295	60.64408248986354
960	4.795	-103.48369252924529	645.4917830230303	314.25938688809606				-90.14218572824197	203.8421973359313	60.082636143029475
961	4.8	-103.47541197067481	645.2711679029816	314.2085493040889				-89.77688421189835	203.668271757863	59.53171307384141
962	4.805	-103.46673352213047	645.0528691161336	314.1586132261296				-89.41557939794882	203.49604424908847	58.99167323341775
963	4.81	-103.45765241399283	644.8368995550144	314.1096025553746				-89.05851811676297	203.32527921805203	58.46284522472332
964	4.815	-103.44816398404481	644.6232711332852	314.0615401601614				-88.70593081258244	203.15575561461844	57.94552571193772
965	4.82	-103.43826369451433	644.4119947817308	314.0144478378383				-88.35803112528899	202.98726735975066	57.43997896248837
966	4.825	-103.42794714880766	644.2030804458185	313.9683462791767				-88.01501553735949	202.81962371448077	56.946436522355405
967	4.83	-103.41721010789279	643.996537084813	313.92325503543975				-87.67706308718657	202.6526495868894	56.46509702462181
968	4.835	-103.4060485062946	643.7923726724275	313.87919248816826				-87.34433514965579	202.48618577607783	55.99612613060979
969	4.84	-103.3944584676642	643.5905941989915	313.8361758217438				-87.01697528457944	202.32008915239032	55.53965660231814
970	4.845	-103.38243631988702	643.3912076751054	313.79422099877314				-86.69510915329155	202.15423277342245	55.095788504257285
971	4.85	-103.369978609695	643.1942181367548	313.7533427383384				-86.37884450341265	201.98850593563375	54.664589532173125
972	4.855	-103.35708211675019	642.9996296518462	313.7135544971422				-86.06827122149632	201.82281416166327	54.24609546556047
973	4.86	-103.34374386716934	642.807445328126	313.6748684535728				-85.76346145297433	201.65707912373207	53.840310740294896
974	4.865	-103.3299611464599	642.617667322438	313.63729549470656				-85.46446978852408	201.49123850379533	53.44720913716127
975	4.87	-103.31573151184121	642.4302968512733	313.60084520625287				-85.17133351569458	201.32524579138578	53.0667345815316
976	4.875	-103.301052803925	642.2453342025606	313.565525865443				-84.88407293434358	201.15907002036369	52.698802048945424
977	4.88	-103.28592315773284	642.0627787486436	313.5313444368539				-84.60269173416337	200.99269544605534	52.343298570877465
978	4.885	-103.27034101302972	641.8826289603859	313.49830657114813				-84.32717743230518	200.82612116452205	52.00008433453991
979	4.89	-103.25430512395486	641.704882422344	313.4664166067092				-84.05750186885439	200.65936067595254	51.668993870164485
980	4.895	-103.23781456793353	641.5295358489442	313.4356775741352				-83.79362175766252	200.49244139441228	51.349837318843484
981	4.9	-103.2208687538555	641.3565851015966	313.4060912035545				-83.53547928980717	200.32540410641246	51.04240177368138
982	4.905	-103.20346742950845	641.1860252066767	313.3776579347129				-83.2830027867306	200.15830238097678	50.74645268672084
983	4.91	-103.18561068825602	641.0178503743065	313.3503769297784				-83.03610739990118	199.991201934088	50.46173533386124
984	4.915	-103.16729897495365	640.8520540178596	313.3242460888018				-82.79469585365082	199.824179950581	50.18797632978348
985	4.92	-103.14853309109658	640.6886287741175	313.299262067762				-82.55865922766748	199.6573243667233	49.92488518473524
986	4.925	-103.12931419919703	640.5275665240014	313.2754202991231				-82.32787777546439	199.49073311687545	49.67215589491439
987	4.93	-103.1096438263898	640.3688584138017	313.2527150148182				-82.10222177500864	199.32451334776255	49.42946855811696
988	4.935	-103.08952386726806	640.2124948768306	313.23113927157493				-81.88155240757135	199.15878060400507	49.19649100628931
989	4.94	-103.06895658595231	640.0584656554162	313.21068497848654				-81.66572266076014	198.99365798865767	48.9728804466422
990	4.945	-103.04794461739861	639.9067598231622	313.1913429267309				-81.45457825161347	198.8292753025849	48.75828510304672
991	4.95	-103.02649096795392	639.7573658073976	313.17310282133184				-81.24795856557395	198.66576816656277	48.55234584953823
992	4.955	-103.00459901516795	639.6102714117341	313.1559533148555				-81.0456976071169	198.50327713003765	48.35469782790395
993	4.96	-102.98227250687376	639.4654638386575	313.13988204292735				-80.84762495778827	198.34194677049345	48.16497204152075
994	4.965	-102.95951555955025	639.3229297120797	313.1248756614528				-80.6535667374053	198.18192478738192	47.98279691784184
995	4.97	-102.93633265598226	639.1826550997722	313.110919885421				-80.46334656419225	198.02336109455112	47.80779983220219
996	4.975	-102.91272864223522	639.0446255356114	313.0979995291691				-80.27678650966155	197.8664069150721	47.63960858592134
997	4.98	-102.88870872396319	638.9088260415657	313.08609854797766				-80.09370804410919	197.71121388230682	47.47785283202625
998	4.985	-102.86427846207033	638.7752411493545	313.0752000808723				-79.9139329686706	197.55793315098757	47.32216544229552
999	4.99	-102.8394437677474	638.6438549217139	313.06528649449825				-79.7372843299775	197.40671452198737	47.172183809734555
1000	4.995	-102.8142108969061	638.5146509732067	313.05633942793764				-79.56358731357082	197.2577055843529	47.02755108102998
1001	5.0	-102.78858644403549	638.3876124905147	313.0483398383358				-79.39267011235354	197.11105087804825	46.887917313995416
